<svg xmlns="http://www.w3.org/2000/svg" width="32" height="32" viewBox="0 0 32 32" fill="none"><g clip-path="url(#clip0_1_894)"><path d="M32 11.5324V13.6524L17.24 21.359C16.4667 21.759 15.5333 21.759 14.76 21.359L0 13.6524V11.5324C0 10.4257 0.613333 9.41237 1.58667 8.89237L14.5867 1.9457C15.4667 1.47904 16.5333 1.47904 17.4133 1.9457L30.4133 8.89237C31.3867 9.41237 32 10.4257 32 11.5324Z" fill="#2196F3"></path><path d="M24.3333 0.25C26.2206 0.25 27.75 1.7794 27.75 3.66667V26.76C27.75 27.1739 27.4139 27.51 27 27.51H5C4.58607 27.51 4.25 27.1739 4.25 26.76V3.66667C4.25 1.7794 5.7794 0.25 7.66667 0.25H24.3333Z" fill="white" stroke="#E4E5E7" stroke-width="0.5"></path><path d="M32 13.6543V27.6676C32 29.321 30.6533 30.6676 29 30.6676H3C1.34667 30.6676 0 29.321 0 27.6676V13.6543L14.76 21.361C15.5333 21.761 16.4667 21.761 17.24 21.361L32 13.6543Z" fill="#64B5F6"></path><path d="M13.6665 16.3666C12.0132 16.3666 10.6665 15.0213 10.6665 13.3666C10.6665 12.316 11.2198 11.34 12.1105 10.8226C12.5878 10.5453 13.1998 10.708 13.4772 11.184C13.7545 11.6613 13.5932 12.2733 13.1158 12.5506C12.8345 12.7146 12.6665 13.02 12.6665 13.3666C12.6665 13.9186 13.1158 14.3666 13.6665 14.3666C14.2172 14.3666 14.6665 13.9173 14.6665 13.3666C14.6665 13.224 14.6385 13.1013 14.5825 12.9946C14.3252 12.5066 14.5105 11.9013 14.9985 11.6426C15.4852 11.3826 16.0905 11.5706 16.3505 12.0586C16.5598 12.456 16.6665 12.896 16.6665 13.3666C16.6665 15.0213 15.3198 16.3666 13.6665 16.3666Z" fill="#FF9800"></path><path d="M23 15.7324C22.9067 15.7324 22.8107 15.7191 22.7187 15.6924L8.71867 11.5938C8.29333 11.4684 8 11.0778 8 10.6338V8.63376C8 8.18709 8.296 7.79509 8.72533 7.67242L22.7253 3.67242C23.0253 3.58842 23.3533 3.64576 23.6013 3.83642C23.8533 4.02442 24 4.32042 24 4.63375V14.7324C24 15.0471 23.852 15.3431 23.5987 15.5324C23.424 15.6644 23.2133 15.7324 23 15.7324Z" fill="#FFC107"></path><path d="M23 16.2999C22.448 16.2999 22 15.8519 22 15.2999V3.96655C22 3.41455 22.448 2.96655 23 2.96655C23.552 2.96655 24 3.41455 24 3.96655V15.2999C24 15.8519 23.552 16.2999 23 16.2999Z" fill="#FFB300"></path><path d="M9 12.2999C8.448 12.2999 8 11.8519 8 11.2999V7.96655C8 7.41455 8.448 6.96655 9 6.96655C9.552 6.96655 10 7.41455 10 7.96655V11.2999C10 11.8519 9.552 12.2999 9 12.2999Z" fill="#FFB300"></path></g><defs><clipPath id="clip0_1_894"><rect width="32" height="32" fill="white"></rect></clipPath></defs></svg>