<svg xmlns="http://www.w3.org/2000/svg" width="24" height="24" viewBox="0 0 24 24" fill="none"><g clip-path="url(#clip0_1_1074)"><path d="M24 8.65001V10.24L12.93 16.02C12.35 16.32 11.65 16.32 11.07 16.02L0 10.24V8.65001C0 7.82001 0.46 7.06001 1.19 6.67001L10.94 1.46001C11.6 1.11001 12.4 1.11001 13.06 1.46001L22.81 6.67001C23.54 7.06001 24 7.82001 24 8.65001Z" fill="#2196F3"></path><path d="M18.25 0.25C19.6309 0.25 20.75 1.36907 20.75 2.75V20.07C20.75 20.3459 20.5259 20.57 20.25 20.57H3.75C3.47407 20.57 3.25 20.3459 3.25 20.07V2.75C3.25 1.36907 4.36907 0.25 5.75 0.25H18.25Z" fill="white" stroke="#E4E5E7" stroke-width="0.5"></path><path d="M24 10.24V20.75C24 21.99 22.99 23 21.75 23H2.25C1.01 23 0 21.99 0 20.75V10.24L11.07 16.02C11.65 16.32 12.35 16.32 12.93 16.02L24 10.24Z" fill="#64B5F6"></path><path d="M10.25 12.2749C9.01 12.2749 8 11.2659 8 10.0249C8 9.2369 8.415 8.5049 9.083 8.1169C9.441 7.9089 9.9 8.0309 10.108 8.3879C10.316 8.7459 10.195 9.20491 9.837 9.41291C9.626 9.53591 9.5 9.7649 9.5 10.0249C9.5 10.4389 9.837 10.7749 10.25 10.7749C10.663 10.7749 11 10.4379 11 10.0249C11 9.9179 10.979 9.82591 10.937 9.74591C10.744 9.37991 10.883 8.92591 11.249 8.73191C11.614 8.53691 12.068 8.6779 12.263 9.0439C12.42 9.3419 12.5 9.6719 12.5 10.0249C12.5 11.2659 11.49 12.2749 10.25 12.2749Z" fill="#FF9800"></path><path d="M17.25 11.7998C17.18 11.7998 17.108 11.7898 17.039 11.7698L6.539 8.6958C6.22 8.6018 6 8.3088 6 7.9758V6.4758C6 6.1408 6.222 5.8468 6.544 5.7548L17.044 2.7548C17.269 2.6918 17.515 2.7348 17.701 2.8778C17.89 3.0188 18 3.2408 18 3.4758V11.0498C18 11.2858 17.889 11.5078 17.699 11.6498C17.568 11.7488 17.41 11.7998 17.25 11.7998Z" fill="#FFC107"></path><path d="M17.25 12.2246C16.836 12.2246 16.5 11.8886 16.5 11.4746V2.97461C16.5 2.56061 16.836 2.22461 17.25 2.22461C17.664 2.22461 18 2.56061 18 2.97461V11.4746C18 11.8886 17.664 12.2246 17.25 12.2246Z" fill="#FFB300"></path><path d="M6.75 9.22461C6.336 9.22461 6 8.88861 6 8.47461V5.97461C6 5.56061 6.336 5.22461 6.75 5.22461C7.164 5.22461 7.5 5.56061 7.5 5.97461V8.47461C7.5 8.88861 7.164 9.22461 6.75 9.22461Z" fill="#FFB300"></path></g><defs><clipPath id="clip0_1_1074"><rect width="24" height="24" fill="white"></rect></clipPath></defs></svg>