<svg xmlns="http://www.w3.org/2000/svg" width="60" height="60" viewBox="0 0 60 60" fill="none"><g clip-path="url(#clip0_1_840)"><path d="M60 21.6254V25.6004L32.325 40.0504C30.875 40.8004 29.125 40.8004 27.675 40.0504L0 25.6004V21.6254C0 19.5504 1.15 17.6504 2.975 16.6754L27.35 3.65039C29 2.77539 31 2.77539 32.65 3.65039L57.025 16.6754C58.85 17.6504 60 19.5504 60 21.6254Z" fill="#2196F3"></path><path d="M45.625 0.25C49.2844 0.25 52.25 3.21557 52.25 6.875V50.175C52.25 51.0719 51.5219 51.8 50.625 51.8H9.375C8.47807 51.8 7.75 51.0719 7.75 50.175V6.875C7.75 3.21557 10.7156 0.25 14.375 0.25H45.625Z" fill="white" stroke="#E4E5E7" stroke-width="0.5"></path><path d="M60 25.5996V51.8746C60 54.9746 57.475 57.4996 54.375 57.4996H5.625C2.525 57.4996 0 54.9746 0 51.8746V25.5996L27.675 40.0496C29.125 40.7996 30.875 40.7996 32.325 40.0496L60 25.5996Z" fill="#64B5F6"></path><path d="M25.625 30.6879C22.525 30.6879 20 28.1654 20 25.0629C20 23.0929 21.0375 21.2629 22.7075 20.2929C23.6025 19.7729 24.75 20.0779 25.27 20.9704C25.79 21.8654 25.4875 23.0129 24.5925 23.5329C24.065 23.8404 23.75 24.4129 23.75 25.0629C23.75 26.0979 24.5925 26.9379 25.625 26.9379C26.6575 26.9379 27.5 26.0954 27.5 25.0629C27.5 24.7954 27.4475 24.5654 27.3425 24.3654C26.86 23.4504 27.2075 22.3154 28.1225 21.8304C29.035 21.3429 30.17 21.6954 30.6575 22.6104C31.05 23.3554 31.25 24.1804 31.25 25.0629C31.25 28.1654 28.725 30.6879 25.625 30.6879Z" fill="#FF9800"></path><path d="M43.125 29.4975C42.95 29.4975 42.77 29.4725 42.5975 29.4225L16.3475 21.7375C15.55 21.5025 15 20.77 15 19.9375V16.1875C15 15.35 15.555 14.615 16.36 14.385L42.61 6.885C43.1725 6.7275 43.7875 6.835 44.2525 7.1925C44.725 7.545 45 8.1 45 8.6875V27.6225C45 28.2125 44.7225 28.7675 44.2475 29.1225C43.92 29.37 43.525 29.4975 43.125 29.4975Z" fill="#FFC107"></path><path d="M43.125 30.5625C42.09 30.5625 41.25 29.7225 41.25 28.6875V7.4375C41.25 6.4025 42.09 5.5625 43.125 5.5625C44.16 5.5625 45 6.4025 45 7.4375V28.6875C45 29.7225 44.16 30.5625 43.125 30.5625Z" fill="#FFB300"></path><path d="M16.875 23.0625C15.84 23.0625 15 22.2225 15 21.1875V14.9375C15 13.9025 15.84 13.0625 16.875 13.0625C17.91 13.0625 18.75 13.9025 18.75 14.9375V21.1875C18.75 22.2225 17.91 23.0625 16.875 23.0625Z" fill="#FFB300"></path></g><defs><clipPath id="clip0_1_840"><rect width="60" height="60" fill="white"></rect></clipPath></defs></svg>