<svg xmlns="http://www.w3.org/2000/svg" width="32" height="32" viewBox="0 0 32 32" fill="none"><path d="M18.2998 2.11809C16.1002 0.845712 13.2875 1.60077 12.0175 3.80459L0.617387 23.5877C-0.65255 25.7915 0.101075 28.6095 2.3007 29.8819C4.50033 31.1543 7.31301 30.3992 8.58301 28.1954L19.9832 8.41227C21.2531 6.20846 20.4995 3.39046 18.2998 2.11809Z" fill="#FFC107"></path><path d="M18.2991 2.11813C17.2716 1.52381 16.1105 1.37206 15.0352 1.6035C15.4918 1.702 15.9413 1.87156 16.3675 2.11813C18.5671 3.3905 19.3208 6.2085 18.0508 8.41231L6.6507 28.1954C5.97395 29.3698 4.85907 30.1326 3.63232 30.3966C5.53195 30.8063 7.55845 29.9721 8.58226 28.1954L19.9824 8.41231C21.2524 6.2085 20.4988 3.3905 18.2991 2.11813Z" fill="#FFB300"></path><path d="M4.59412 30.5005C7.13139 30.5005 9.18825 28.4398 9.18825 25.8977C9.18825 23.3557 7.13139 21.2949 4.59412 21.2949C2.05686 21.2949 0 23.3557 0 25.8977C0 28.4398 2.05686 30.5005 4.59412 30.5005Z" fill="#4CAF50"></path><path d="M3.6324 30.3958C3.63215 30.3964 3.63202 30.3969 3.63184 30.3974C3.94221 30.4636 4.26384 30.4993 4.59396 30.4993C7.13121 30.4993 9.18809 28.4385 9.18809 25.8965C9.18809 25.3317 9.08609 24.791 8.90034 24.291L6.65084 28.1947C5.97402 29.3691 4.85915 30.1318 3.6324 30.3958Z" fill="#43A047"></path><path d="M31.3831 23.5879L19.9829 3.80483C18.713 1.60102 15.9003 0.845956 13.7006 2.11833C11.501 3.39071 10.7473 6.20871 12.0173 8.41252L23.4175 28.1956C24.6874 30.3995 27.5001 31.1545 29.6998 29.8821C31.8994 28.6098 32.6531 25.7917 31.3831 23.5879Z" fill="#2196F3"></path><path d="M31.3833 23.5868L19.9831 3.80376C18.9593 2.02708 16.9328 1.19283 15.0332 1.60264C16.2599 1.86664 17.3748 2.62939 18.0516 3.80376L29.4518 23.5869C30.7218 25.7907 29.9681 28.6087 27.7685 29.8811C27.3421 30.1276 26.8928 30.2972 26.4361 30.3957C27.5114 30.6271 28.6726 30.4754 29.7001 29.8811C31.8996 28.6087 32.6533 25.7906 31.3833 23.5868Z" fill="#1E88E5"></path></svg>