<svg xmlns="http://www.w3.org/2000/svg" width="60" height="60" viewBox="0 0 60 60" fill="none"><g clip-path="url(#clip0_1_806)"><path d="M34.3113 3.97135C30.187 1.58565 24.9132 3.00139 22.5319 7.13354L1.15669 44.2269C-1.22445 48.3591 0.1886 53.6428 4.3129 56.0285C8.43719 58.4142 13.711 56.9985 16.0922 52.8663L37.4676 15.773C39.8487 11.6408 38.4356 6.35705 34.3113 3.97135Z" fill="#FFC107"></path><path d="M34.3108 3.97097C32.3843 2.85663 30.2071 2.5721 28.1909 3.00605C29.0471 3.19073 29.8898 3.50866 30.689 3.97097C34.8133 6.35667 36.2265 11.6404 33.8452 15.7726L12.47 52.8659C11.2011 55.0679 9.1107 56.498 6.81055 56.993C10.3723 57.7613 14.172 56.1972 16.0917 52.8659L37.4669 15.7726C39.8483 11.6404 38.4351 6.35667 34.3108 3.97097Z" fill="#FFB300"></path><path d="M8.61398 57.1872C13.3714 57.1872 17.228 53.3233 17.228 48.557C17.228 43.7906 13.3714 39.9267 8.61398 39.9267C3.85661 39.9267 0 43.7906 0 48.557C0 53.3233 3.85661 57.1872 8.61398 57.1872Z" fill="#4CAF50"></path><path d="M6.81062 56.9933C6.81016 56.9944 6.80992 56.9953 6.80957 56.9963C7.39152 57.1205 7.99457 57.1873 8.61355 57.1873C13.3709 57.1873 17.2275 53.3234 17.2275 48.557C17.2275 47.4981 17.0363 46.4842 16.688 45.5468L12.4702 52.8662C11.2012 55.0682 9.11078 56.4982 6.81062 56.9933Z" fill="#43A047"></path><path d="M58.8435 44.2268L37.4683 7.13354C35.0871 3.00139 29.8133 1.58565 25.6889 3.97135C21.5646 6.35705 20.1515 11.6408 22.5327 15.773L43.9081 52.8663C46.2892 56.9985 51.563 58.4142 55.6874 56.0285C59.8116 53.6428 61.2248 48.3589 58.8435 44.2268Z" fill="#2196F3"></path><path d="M58.8429 44.2272L37.4677 7.13395C35.5479 3.80266 31.7483 2.23844 28.1865 3.00684C30.4866 3.50184 32.5771 4.932 33.846 7.13395L55.2213 44.2273C57.6026 48.3595 56.1894 53.6432 52.0651 56.0289C51.2658 56.4912 50.4232 56.8091 49.567 56.9938C51.5831 57.4278 53.7604 57.1432 55.6869 56.0289C59.811 53.6432 61.2241 48.3593 58.8429 44.2272Z" fill="#1E88E5"></path></g><defs><clipPath id="clip0_1_806"><rect width="60" height="60" fill="white"></rect></clipPath></defs></svg>