<svg xmlns="http://www.w3.org/2000/svg" width="24" height="24" viewBox="0 0 24 24" fill="none"><path d="M13.7247 1.58857C12.075 0.634284 9.96551 1.20058 9.01301 2.85344L0.462919 17.6908C-0.489535 19.3436 0.0756841 21.4571 1.7254 22.4114C3.37512 23.3657 5.48464 22.7994 6.43714 21.1466L14.9873 6.30921C15.9397 4.65635 15.3745 2.54285 13.7247 1.58857Z" fill="#FFC107"></path><path d="M13.7245 1.58866C12.9538 1.14292 12.083 1.02911 11.2765 1.20269C11.619 1.27656 11.9561 1.40373 12.2758 1.58866C13.9255 2.54294 14.4907 4.65644 13.5382 6.3093L4.98815 21.1466C4.48058 22.0274 3.64443 22.5995 2.72437 22.7975C4.14908 23.1048 5.66896 22.4792 6.43682 21.1466L14.9869 6.3093C15.9395 4.65644 15.3742 2.54294 13.7245 1.58866Z" fill="#FFB300"></path><path d="M3.44559 22.8749C5.34854 22.8749 6.89119 21.3294 6.89119 19.4228C6.89119 17.5163 5.34854 15.9707 3.44559 15.9707C1.54264 15.9707 0 17.5163 0 19.4228C0 21.3294 1.54264 22.8749 3.44559 22.8749Z" fill="#4CAF50"></path><path d="M2.72454 22.7974C2.72436 22.7978 2.72426 22.7982 2.72412 22.7985C2.9569 22.8482 3.19812 22.8749 3.44571 22.8749C5.34865 22.8749 6.89131 21.3294 6.89131 19.4228C6.89131 18.9993 6.81481 18.5937 6.6755 18.2188L4.98837 21.1465C4.48076 22.0273 3.64461 22.5993 2.72454 22.7974Z" fill="#43A047"></path><path d="M23.5373 17.691L14.9872 2.85368C14.0348 1.20082 11.9252 0.634528 10.2755 1.58881C8.62575 2.54309 8.06049 4.65659 9.01299 6.30945L17.5631 21.1468C18.5156 22.7997 20.6251 23.3659 22.2749 22.4117C23.9245 21.4574 24.4898 19.3438 23.5373 17.691Z" fill="#2196F3"></path><path d="M23.5374 17.6911L14.9874 2.8538C14.2194 1.52128 12.6996 0.895596 11.2749 1.20296C12.1949 1.40096 13.0311 1.97302 13.5387 2.8538L22.0888 17.6911C23.0413 19.344 22.4761 21.4575 20.8263 22.4118C20.5066 22.5967 20.1696 22.7239 19.8271 22.7978C20.6335 22.9713 21.5044 22.8575 22.2751 22.4118C23.9247 21.4575 24.49 19.344 23.5374 17.6911Z" fill="#1E88E5"></path></svg>