<svg xmlns="http://www.w3.org/2000/svg" width="24" height="24" viewBox="0 0 24 24" fill="none"><path d="M13.4297 9.86719C12.8883 9.86719 12.4688 10.2867 12.4688 10.8047C12.4688 11.3227 12.8883 11.7422 13.4297 11.7422C13.9242 11.7422 14.3438 11.3227 14.3438 10.8047C14.3438 10.2867 13.9242 9.86719 13.4297 9.86719ZM6.86719 9.86719C6.32578 9.86719 5.90625 10.2867 5.90625 10.8047C5.90625 11.3227 6.32578 11.7422 6.86719 11.7422C7.36172 11.7422 7.78125 11.3227 7.78125 10.8047C7.78125 10.2867 7.36172 9.86719 6.86719 9.86719Z" fill="#F04B21"></path><path d="M20.9531 8.08601C19.8257 6.53913 18.2507 5.50554 16.5234 5.03913V5.04148C16.1226 4.59617 15.6702 4.18601 15.164 3.82038C11.3273 1.03132 5.94134 1.8821 3.14056 5.71882C0.883525 8.83601 0.979619 13.029 3.28118 16.0079L3.29993 19.1157C3.29993 19.1907 3.31165 19.2657 3.33509 19.336C3.45931 19.7321 3.88118 19.9501 4.27493 19.8259L7.24212 18.8907C8.02728 19.1696 8.83821 19.329 9.64446 19.3735L9.63274 19.3829C11.721 20.904 14.4585 21.361 16.9687 20.5313L19.9476 21.5016C20.0226 21.5251 20.0999 21.5391 20.1796 21.5391C20.5945 21.5391 20.9296 21.204 20.9296 20.7891V17.6485C22.9945 14.8454 23.0484 10.9712 20.9531 8.08601ZM7.57024 17.2266L7.28899 17.1094L4.96868 17.836L4.94524 15.3985L4.75774 15.1876C2.77493 12.7688 2.64368 9.28367 4.49993 6.72663C6.75931 3.6282 11.0906 2.94382 14.1796 5.17976C17.2781 7.4321 17.9648 11.7563 15.7265 14.836C13.8491 17.4118 10.4882 18.3634 7.57024 17.2266ZM19.4062 16.8282L19.2187 17.0626L19.2421 19.5001L16.9452 18.7266L16.664 18.8438C15.3515 19.3313 13.9523 19.3712 12.6562 19.0079L12.6515 19.0055C14.3835 18.4735 15.9538 17.3954 17.0859 15.8438C18.8765 13.3759 19.1671 10.2751 18.1265 7.63132L18.1406 7.6407C18.6796 8.02742 19.1742 8.51023 19.5937 9.09382C21.2952 11.4282 21.1992 14.6063 19.4062 16.8282Z" fill="#F04B21"></path><path d="M10.1484 9.86719C9.60703 9.86719 9.1875 10.2867 9.1875 10.8047C9.1875 11.3227 9.60703 11.7422 10.1484 11.7422C10.643 11.7422 11.0625 11.3227 11.0625 10.8047C11.0625 10.2867 10.643 9.86719 10.1484 9.86719Z" fill="#F04B21"></path></svg>