<svg xmlns="http://www.w3.org/2000/svg" width="20" height="20" viewBox="0 0 20 20" fill="none"><path d="M9.99935 7.29297C9.28105 7.29297 8.59218 7.57831 8.08427 8.08622C7.57636 8.59413 7.29102 9.28301 7.29102 10.0013C7.29102 10.7196 7.57636 11.4085 8.08427 11.9164C8.59218 12.4243 9.28105 12.7096 9.99935 12.7096C10.7176 12.7096 11.4065 12.4243 11.9144 11.9164C12.4223 11.4085 12.7077 10.7196 12.7077 10.0013C12.7077 9.28301 12.4223 8.59413 11.9144 8.08622C11.4065 7.57831 10.7176 7.29297 9.99935 7.29297Z" fill="#032737"></path><path fill-rule="evenodd" clip-rule="evenodd" d="M5.64168 2.56894C8.53837 2.24785 11.4617 2.24785 14.3583 2.56894C15.9408 2.7456 17.2167 3.99144 17.4025 5.57977C17.746 8.51698 17.746 11.4842 17.4025 14.4214C17.2167 16.0098 15.9408 17.2556 14.3592 17.4331C11.4622 17.7543 8.53864 17.7543 5.64168 17.4331C4.05918 17.2556 2.78335 16.0098 2.59751 14.4223C2.25395 11.4848 2.25395 8.51726 2.59751 5.57977C2.78335 3.99144 4.05918 2.7456 5.64168 2.56894ZM14.1667 5.0006C13.9457 5.0006 13.7337 5.0884 13.5774 5.24468C13.4211 5.40096 13.3333 5.61292 13.3333 5.83394C13.3333 6.05495 13.4211 6.26691 13.5774 6.42319C13.7337 6.57947 13.9457 6.66727 14.1667 6.66727C14.3877 6.66727 14.5997 6.57947 14.7559 6.42319C14.9122 6.26691 15 6.05495 15 5.83394C15 5.61292 14.9122 5.40096 14.7559 5.24468C14.5997 5.0884 14.3877 5.0006 14.1667 5.0006ZM6.04168 10.0006C6.04168 8.95079 6.45872 7.94397 7.20105 7.20164C7.94338 6.45931 8.9502 6.04227 10 6.04227C11.0498 6.04227 12.0566 6.45931 12.799 7.20164C13.5413 7.94397 13.9583 8.95079 13.9583 10.0006C13.9583 11.0504 13.5413 12.0572 12.799 12.7996C12.0566 13.5419 11.0498 13.9589 10 13.9589C8.9502 13.9589 7.94338 13.5419 7.20105 12.7996C6.45872 12.0572 6.04168 11.0504 6.04168 10.0006Z" fill="#032737"></path></svg>