<svg xmlns="http://www.w3.org/2000/svg" width="40" height="40" viewBox="0 0 40 40" fill="none"><g clip-path="url(#clip0_1_1084)"><path d="M39.7546 20C39.7546 29.9828 32.4854 38.257 22.9831 39.757V25.7812H27.6147L28.496 20H22.9831V16.2484C22.9831 14.6664 23.7534 13.125 26.2225 13.125H28.7289V8.20312C28.7289 8.20312 26.4539 7.8125 24.279 7.8125C19.7391 7.8125 16.7715 10.5812 16.7715 15.5937V20H11.7245V25.7812H16.7715V39.757C7.26919 38.257 0 29.9828 0 20C0 8.95469 8.89975 0 19.8773 0C30.8549 0 39.7546 8.95469 39.7546 20Z" fill="#1877F2"></path><path d="M27.6148 25.7812L28.4961 20H22.9832V16.2484C22.9832 14.6667 23.7533 13.125 26.2225 13.125H28.729V8.20312C28.729 8.20312 26.4543 7.8125 24.2795 7.8125C19.7391 7.8125 16.7716 10.5813 16.7716 15.5938V20H11.7246V25.7812H16.7716V39.757C17.7836 39.9167 18.8208 40 19.8774 40C20.934 40 21.9712 39.9167 22.9832 39.757V25.7812H27.6148Z" fill="white"></path></g><defs><clipPath id="clip0_1_1084"><rect width="39.7546" height="40" fill="white"></rect></clipPath></defs></svg>