<svg xmlns="http://www.w3.org/2000/svg" width="60" height="60" viewBox="0 0 60 60" fill="none"><path d="M6.52171 6.74906C2.29123 11.1433 3.15707 15.8112 3.15707 29.992C3.15707 41.7683 1.10239 53.5737 11.8558 56.3529C15.2137 57.2165 44.9661 57.2165 48.3196 56.3484C52.7968 55.1932 56.4396 51.5616 56.9375 45.2294C57.0071 44.3456 57.0071 15.6541 56.9353 14.7524C56.4059 8.00743 52.2539 4.12015 46.783 3.33282C45.5291 3.15113 45.2779 3.0973 38.8447 3.08608C16.0257 3.0973 11.0236 2.08118 6.52171 6.74906Z" fill="url(#paint0_linear_1_855)"></path><path d="M30.0696 10.1274C21.9249 10.1274 14.1907 9.40291 11.2366 16.9846C10.0163 20.1159 10.1935 24.1827 10.1935 30.0057C10.1935 35.1155 10.0298 39.918 11.2366 43.0247C14.184 50.6108 21.981 49.8841 30.0651 49.8841C37.8644 49.8841 45.9059 50.696 48.8959 43.0247C50.1184 39.8619 49.939 35.8557 49.939 30.0057C49.939 22.2401 50.3674 17.2268 46.6012 13.4629C42.788 9.64965 37.6311 10.1274 30.0606 10.1274H30.0696ZM28.2886 13.7097C45.2778 13.6827 47.4401 11.7941 46.2468 38.0315C45.8229 47.3112 38.7571 46.2929 30.0719 46.2929C14.2356 46.2929 13.7803 45.8397 13.7803 29.9968C13.7803 13.9699 15.0364 13.7186 28.2886 13.7052V13.7097ZM40.6795 17.0092C39.3628 17.0092 38.295 18.077 38.295 19.3937C38.295 20.7104 39.3628 21.7781 40.6795 21.7781C41.9962 21.7781 43.0639 20.7104 43.0639 19.3937C43.0639 18.077 41.9962 17.0092 40.6795 17.0092ZM30.0696 19.7974C24.4327 19.7974 19.8635 24.3688 19.8635 30.0057C19.8635 35.6426 24.4327 40.2118 30.0696 40.2118C35.7065 40.2118 40.2735 35.6426 40.2735 30.0057C40.2735 24.3688 35.7065 19.7974 30.0696 19.7974ZM30.0696 23.3796C38.8289 23.3796 38.8401 36.6318 30.0696 36.6318C21.3126 36.6318 21.2991 23.3796 30.0696 23.3796Z" fill="white"></path><defs><linearGradient id="paint0_linear_1_855" x1="6.62494" y1="53.4819" x2="56.6582" y2="10.1787" gradientUnits="userSpaceOnUse"><stop stop-color="#FFDD55"></stop><stop offset="0.5" stop-color="#FF543E"></stop><stop offset="1" stop-color="#C837AB"></stop></linearGradient></defs></svg>