<svg xmlns="http://www.w3.org/2000/svg" width="32" height="32" viewBox="0 0 32 32" fill="none"><path d="M3.47834 3.59911C1.22209 5.94269 1.68387 8.43223 1.68387 15.9953C1.68387 22.276 0.588041 28.5722 6.32319 30.0545C8.11407 30.5151 23.982 30.5151 25.7705 30.0521C28.1584 29.436 30.1012 27.4991 30.3668 24.1219C30.4039 23.6506 30.4039 8.34849 30.3656 7.86757C30.0833 4.27024 27.8689 2.19702 24.951 1.77711C24.2823 1.68021 24.1483 1.6515 20.7173 1.64552C8.54714 1.6515 5.87935 1.10957 3.47834 3.59911Z" fill="url(#paint0_linear_1_904)"></path><path d="M16.0375 5.40086C11.6937 5.40086 7.56875 5.01445 5.9932 9.058C5.34241 10.7281 5.43692 12.897 5.43692 16.0026C5.43692 18.7278 5.34959 21.2892 5.9932 22.9461C7.56517 26.992 11.7236 26.6044 16.0351 26.6044C20.1947 26.6044 24.4835 27.0375 26.0782 22.9461C26.7302 21.2592 26.6345 19.1226 26.6345 16.0026C26.6345 11.861 26.863 9.1872 24.8543 7.17978C22.8206 5.14604 20.0703 5.40086 16.0327 5.40086H16.0375ZM15.0876 7.31138C24.1485 7.29702 25.3018 6.28972 24.6653 20.283C24.4392 25.2322 20.6708 24.6891 16.0387 24.6891C7.59268 24.6891 7.34983 24.4474 7.34983 15.9978C7.34983 7.45015 8.01977 7.31616 15.0876 7.30898V7.31138ZM21.6961 9.07116C20.9938 9.07116 20.4244 9.64061 20.4244 10.3428C20.4244 11.0451 20.9938 11.6145 21.6961 11.6145C22.3983 11.6145 22.9678 11.0451 22.9678 10.3428C22.9678 9.64061 22.3983 9.07116 21.6961 9.07116ZM16.0375 10.5582C13.0311 10.5582 10.5942 12.9963 10.5942 16.0026C10.5942 19.009 13.0311 21.4459 16.0375 21.4459C19.0438 21.4459 21.4795 19.009 21.4795 16.0026C21.4795 12.9963 19.0438 10.5582 16.0375 10.5582ZM16.0375 12.4687C20.7091 12.4687 20.7151 19.5365 16.0375 19.5365C11.3671 19.5365 11.3599 12.4687 16.0375 12.4687Z" fill="white"></path><defs><linearGradient id="paint0_linear_1_904" x1="3.5334" y1="28.5233" x2="30.2178" y2="5.42824" gradientUnits="userSpaceOnUse"><stop stop-color="#FFDD55"></stop><stop offset="0.5" stop-color="#FF543E"></stop><stop offset="1" stop-color="#C837AB"></stop></linearGradient></defs></svg>