<svg xmlns="http://www.w3.org/2000/svg" width="24" height="24" viewBox="0 0 24 24" fill="none"><path d="M19.9504 18.7502V7.9502H9.15039V7.2752C9.15039 6.15875 10.0589 5.2502 11.1754 5.2502H13.2004V1.2002H11.1754C7.82604 1.2002 5.10039 3.92585 5.10039 7.2752V7.9502H2.40039V12.0002H5.10039V18.7502H2.40039V22.8002H11.8504V18.7502H9.15039V12.0002H15.9382V18.7502H13.2004V22.8002H22.6504V18.7502H19.9504Z" fill="#032737"></path><path d="M17.9254 5.2502C19.0438 5.2502 19.9504 4.34357 19.9504 3.2252C19.9504 2.10682 19.0438 1.2002 17.9254 1.2002C16.807 1.2002 15.9004 2.10682 15.9004 3.2252C15.9004 4.34357 16.807 5.2502 17.9254 5.2502Z" fill="#032737"></path></svg>