<svg xmlns="http://www.w3.org/2000/svg" width="48" height="48" viewBox="0 0 48 48" fill="none"><path d="M3.42728 19.2679V19.3752C3.42728 19.3752 3.42578 19.3819 3.42578 19.3849V42.6499C3.42578 44.7732 5.15603 46.5004 7.28303 46.5004H40.7165C42.8435 46.5004 44.5738 44.7732 44.5738 42.6499V19.3849C44.5738 19.3849 44.5723 19.3782 44.5723 19.3752V19.0879C44.5723 18.8742 44.4815 18.6709 44.3218 18.5284L40.4255 15.0687V5.46792C40.4255 5.05392 40.0903 4.71792 39.6755 4.71792H28.7848L26.0435 2.28267C24.8788 1.24692 23.1223 1.24617 21.9538 2.28492L19.2493 4.71792H8.32478C7.91003 4.71792 7.57478 5.05392 7.57478 5.46792V15.2059L3.67628 18.7107C3.51803 18.8524 3.42803 19.0557 3.42803 19.2687L3.42728 19.2679ZM40.7165 45.0004H7.28303C5.98403 45.0004 4.92578 43.9459 4.92578 42.6499V21.0537L6.70778 22.6332L11.8483 27.1917L17.9135 32.5714L7.16003 42.1099C6.85028 42.3844 6.82253 42.8592 7.09703 43.1689C7.24478 43.3362 7.45178 43.4209 7.65803 43.4209C7.83503 43.4209 8.01353 43.3587 8.15603 43.2319L19.0438 33.5742L21.8278 36.0439C22.4465 36.5944 23.222 36.8697 23.999 36.8697C24.776 36.8697 25.5508 36.5944 26.1695 36.0447L28.9513 33.5779L39.8435 43.2327C39.986 43.3587 40.1638 43.4209 40.3408 43.4209C40.547 43.4209 40.754 43.3354 40.9018 43.1689C41.1763 42.8584 41.1478 42.3852 40.838 42.1099L30.0815 32.5752L36.7798 26.6337L41.2205 22.6962L43.0738 21.0544V42.6514C43.0738 43.9474 42.0163 45.0019 40.7165 45.0019V45.0004ZM42.8615 19.2364L40.8335 21.0342L40.4248 21.3964V17.0734L42.8615 19.2364ZM22.9535 3.40317C23.549 2.87217 24.4475 2.87217 25.046 3.40317L26.5258 4.71717H21.4918L22.9535 3.40242V3.40317ZM9.07403 6.21792H38.9248V22.7254L35.987 25.3309L28.6265 31.8574C28.526 31.8994 28.4315 31.9587 28.355 32.0457C28.3258 32.0787 28.3145 32.1184 28.292 32.1544L25.175 34.9182C24.5038 35.5122 23.495 35.5122 22.8238 34.9182L19.715 32.1612C19.691 32.1199 19.6768 32.0749 19.6438 32.0382C19.5643 31.9482 19.466 31.8889 19.3618 31.8477L12.5908 25.8439L9.07478 22.7247V6.21792H9.07403ZM7.57403 21.3964L7.01528 20.9007L5.23703 19.3234L7.57478 17.2227V21.3957L7.57403 21.3964Z" fill="#F04B21"></path><path d="M18.0752 11.6104H34.5534C34.9682 11.6104 35.3034 11.2744 35.3034 10.8604C35.3034 10.4464 34.9682 10.1104 34.5534 10.1104H18.0752C17.6604 10.1104 17.3252 10.4464 17.3252 10.8604C17.3252 11.2744 17.6604 11.6104 18.0752 11.6104Z" fill="#F04B21"></path><path d="M13.4395 11.6104H15.262C15.6767 11.6104 16.012 11.2744 16.012 10.8604C16.012 10.4464 15.6767 10.1104 15.262 10.1104H13.4395C13.0247 10.1104 12.6895 10.4464 12.6895 10.8604C12.6895 11.2744 13.0247 11.6104 13.4395 11.6104Z" fill="#F04B21"></path><path d="M34.5551 13.5605H13.4434C13.0286 13.5605 12.6934 13.8965 12.6934 14.3105C12.6934 14.7245 13.0286 15.0605 13.4434 15.0605H34.5551C34.9699 15.0605 35.3051 14.7245 35.3051 14.3105C35.3051 13.8965 34.9699 13.5605 34.5551 13.5605Z" fill="#F04B21"></path><path d="M34.5526 18.51C34.9673 18.51 35.3026 18.174 35.3026 17.76C35.3026 17.346 34.9673 17.01 34.5526 17.01H32.4443C32.0296 17.01 31.6943 17.346 31.6943 17.76C31.6943 18.174 32.0296 18.51 32.4443 18.51H34.5526Z" fill="#F04B21"></path><path d="M13.4404 18.5098H29.6404C30.0552 18.5098 30.3904 18.1738 30.3904 17.7598C30.3904 17.3458 30.0552 17.0098 29.6404 17.0098H13.4404C13.0257 17.0098 12.6904 17.3458 12.6904 17.7598C12.6904 18.1738 13.0257 18.5098 13.4404 18.5098Z" fill="#F04B21"></path><path d="M34.5551 20.4551H13.4434C13.0286 20.4551 12.6934 20.7911 12.6934 21.2051C12.6934 21.6191 13.0286 21.9551 13.4434 21.9551H34.5551C34.9699 21.9551 35.3051 21.6191 35.3051 21.2051C35.3051 20.7911 34.9699 20.4551 34.5551 20.4551Z" fill="#F04B21"></path><path d="M31.6691 23.9033H13.4434C13.0286 23.9033 12.6934 24.2393 12.6934 24.6533C12.6934 25.0673 13.0286 25.4033 13.4434 25.4033H31.6691C32.0839 25.4033 32.4191 25.0673 32.4191 24.6533C32.4191 24.2393 32.0839 23.9033 31.6691 23.9033Z" fill="#F04B21"></path></svg>