<svg xmlns="http://www.w3.org/2000/svg" width="24" height="24" viewBox="0 0 24 24" fill="none"><path d="M18.5854 5.5122C16 5.5122 14.0488 7.21951 13.2683 9.90244C12.0488 8 11.0732 5.85366 10.5366 4H7.80488V11.1707C7.80488 12.5854 6.63415 13.7561 5.21951 13.7561C3.80488 13.7561 2.63415 12.5854 2.63415 11.1707V4.04878H0V11.2195C0 14.1951 2.39024 16.5854 5.31707 16.5854C8.2439 16.5854 10.6341 14.1951 10.6341 11.2195V10C11.1707 11.0732 11.8537 12.2439 12.5854 13.2683L10.878 21.2195H13.6585L14.8293 15.4146C15.9024 16.0976 17.122 16.4878 18.5854 16.4878C21.561 16.4878 24 14.0488 24 10.9268C24 7.95122 21.561 5.5122 18.5854 5.5122ZM18.5854 13.7561C17.5122 13.7561 16.3902 13.2683 15.5122 12.5366L15.8049 11.4634V11.4146C16 10.2439 16.6341 8.29268 18.6341 8.29268C20.1463 8.29268 21.3659 9.51219 21.3659 11.0244C21.3171 12.5366 20 13.7561 18.5854 13.7561Z" fill="#032737"></path></svg>