<svg xmlns="http://www.w3.org/2000/svg" width="32" height="32" viewBox="0 0 32 32" fill="none"><path d="M31.3313 8.24706C30.9633 6.86131 29.879 5.77 28.5022 5.39956C26.0067 4.72656 16 4.72656 16 4.72656C16 4.72656 5.99331 4.72656 3.49781 5.39956C2.121 5.76994 1.03669 6.86131 0.668688 8.24706C0 10.7588 0 15.9993 0 15.9993C0 15.9993 0 21.2398 0.668688 23.7516C1.03669 25.1373 2.121 26.2286 3.49781 26.5991C5.99331 27.2721 16 27.2721 16 27.2721C16 27.2721 26.0067 27.2721 28.5022 26.5991C29.879 26.2286 30.9633 25.1373 31.3313 23.7516C32 21.2398 32 15.9993 32 15.9993C32 15.9993 32 10.7588 31.3313 8.24706Z" fill="#FF0000"></path><path d="M12.7275 20.7582L21.0912 16.0003L12.7275 11.2422V20.7582Z" fill="white"></path></svg>