<svg xmlns="http://www.w3.org/2000/svg" width="60" height="60" viewBox="0 0 60 60" fill="none"><path d="M58.7462 15.4642C58.0562 12.8659 56.0231 10.8197 53.4416 10.1252C48.7625 8.86328 30 8.86328 30 8.86328C30 8.86328 11.2375 8.86328 6.5584 10.1252C3.97688 10.8196 1.94379 12.8659 1.25379 15.4642C0 20.1737 0 29.9997 0 29.9997C0 29.9997 0 39.8256 1.25379 44.5352C1.94379 47.1334 3.97688 49.1796 6.5584 49.8742C11.2375 51.1361 30 51.1361 30 51.1361C30 51.1361 48.7625 51.1361 53.4416 49.8742C56.0231 49.1796 58.0562 47.1334 58.7462 44.5352C60 39.8256 60 29.9997 60 29.9997C60 29.9997 60 20.1737 58.7462 15.4642Z" fill="#FF0000"></path><path d="M23.8633 38.9206L39.5451 29.9996L23.8633 21.0781V38.9206Z" fill="white"></path></svg>